<svg width="54" height="70" viewBox="0 0 54 70" fill="none" xmlns="http://www.w3.org/2000/svg">
<path id="Vector" d="M42.8333 23.3333V23.8333H43.3333H46.6667C50.0572 23.8333 52.8333 26.6095 52.8333 30V63.3333C52.8333 66.7239 50.0572 69.5 46.6667 69.5H6.66667C3.27614 69.5 0.5 66.7239 0.5 63.3333V30C0.5 26.6095 3.27614 23.8333 6.66667 23.8333H10H10.5V23.3333V16.6667C10.5 7.74281 17.7428 0.5 26.6667 0.5C35.5905 0.5 42.8333 7.74281 42.8333 16.6667V23.3333ZM16.1667 23.3333V23.8333H16.6667H36.6667H37.1667V23.3333V16.6667C37.1667 10.8572 32.4761 6.16667 26.6667 6.16667C20.8572 6.16667 16.1667 10.8572 16.1667 16.6667V23.3333ZM19.5 46.6667C19.5 50.6095 22.7239 53.8333 26.6667 53.8333C30.6095 53.8333 33.8333 50.6095 33.8333 46.6667C33.8333 42.7239 30.6095 39.5 26.6667 39.5C22.7239 39.5 19.5 42.7239 19.5 46.6667Z" fill="white" stroke="black"/>
</svg>
