<svg width="57" height="93" viewBox="0 0 57 93" fill="none" xmlns="http://www.w3.org/2000/svg">
<g id="Vector" filter="url(#filter0_d_33_27)">
<path d="M29.385 41.3475C18.9409 38.6329 15.5822 35.8263 15.5822 31.4554C15.5822 26.4404 20.2291 22.9437 28.0047 22.9437C34.5381 22.9437 37.8047 25.4282 39.001 29.385C39.5531 31.2254 41.0714 32.6057 43.0038 32.6057H44.3841C47.4207 32.6057 49.5832 29.6151 48.525 26.7625C46.5926 21.3334 42.0836 16.8244 34.9062 15.0761V11.9014C34.9062 8.08263 31.8235 5 28.0047 5C24.1859 5 21.1033 8.08263 21.1033 11.9014V14.938C12.1775 16.8704 5 22.6676 5 31.5475C5 42.1756 13.7878 47.4667 26.6244 50.5494C38.1268 53.3099 40.4273 57.3588 40.4273 61.6377C40.4273 64.8123 38.1728 69.8733 28.0047 69.8733C20.4132 69.8733 16.5024 67.1588 14.9841 63.294C14.2939 61.4996 12.7296 60.2114 10.8432 60.2114H9.55494C6.4723 60.2114 4.30986 63.34 5.46009 66.1926C8.08263 72.5879 14.2019 76.3607 21.1033 77.833V80.9156C21.1033 84.7344 24.1859 87.817 28.0047 87.817C31.8235 87.817 34.9062 84.7344 34.9062 80.9156V77.925C43.878 76.2226 51.0095 71.0236 51.0095 61.5916C51.0095 48.525 39.8292 44.062 29.385 41.3475Z" fill="white"/>
<path d="M39.4799 29.2413L39.4796 29.2403C38.8511 27.1614 37.6677 25.4446 35.7695 24.2567C33.8818 23.0754 31.33 22.4437 28.0047 22.4437C24.0492 22.4437 20.8327 23.3322 18.5899 24.91C16.3329 26.4978 15.0822 28.7735 15.0822 31.4554C15.0822 32.6149 15.3057 33.6914 15.8265 34.6938C16.3465 35.6948 17.1491 36.5954 18.2696 37.4245C20.4959 39.0718 24.0253 40.471 29.2592 41.8314C34.4723 43.1863 39.796 44.9615 43.813 47.9869C47.8018 50.9911 50.5095 55.2316 50.5095 61.5916C50.5095 66.1667 48.7859 69.6921 45.9824 72.2902C43.1668 74.8995 39.2374 76.5942 34.8129 77.4338L34.4062 77.511V77.925V80.9156C34.4062 84.4583 31.5474 87.317 28.0047 87.317C24.4621 87.317 21.6033 84.4583 21.6033 80.9156V77.833V77.4284L21.2076 77.344C14.4052 75.8928 8.46247 72.1946 5.92331 66.0043C4.91032 63.4896 6.8174 60.7114 9.55494 60.7114H10.8432C12.4823 60.7114 13.8859 61.8315 14.5174 63.4735L14.5187 63.4768C15.32 65.5165 16.7559 67.2525 18.9763 68.4713C21.1879 69.6852 24.1532 70.3733 28.0047 70.3733C33.1675 70.3733 36.4093 69.0881 38.3647 67.3165C40.3222 65.5432 40.9273 63.3396 40.9273 61.6377C40.9273 59.3905 40.3152 57.1654 38.1817 55.1598C36.0757 53.1802 32.5257 51.4515 26.7412 50.0632C20.349 48.5281 15.0271 46.4561 11.3105 43.4873C7.61766 40.5375 5.5 36.697 5.5 31.5475C5.5 23.002 12.4001 17.3338 21.2091 15.4267L21.6033 15.3414V14.938V11.9014C21.6033 8.35878 24.4621 5.5 28.0047 5.5C31.5474 5.5 34.4062 8.35878 34.4062 11.9014V15.0761V15.4689L34.7878 15.5619C41.8051 17.2712 46.1792 21.6631 48.0539 26.9301L48.0539 26.9302L48.0562 26.9364C48.9884 29.4493 47.0864 32.1057 44.3841 32.1057H43.0038C41.3363 32.1057 39.9822 30.9157 39.4799 29.2413Z" stroke="black"/>
</g>
<defs>
<filter id="filter0_d_33_27" x="0" y="0" width="56.0095" height="92.817" filterUnits="userSpaceOnUse" color-interpolation-filters="sRGB">
<feFlood flood-opacity="0" result="BackgroundImageFix"/>
<feColorMatrix in="SourceAlpha" type="matrix" values="0 0 0 0 0 0 0 0 0 0 0 0 0 0 0 0 0 0 127 0" result="hardAlpha"/>
<feOffset/>
<feGaussianBlur stdDeviation="2.5"/>
<feComposite in2="hardAlpha" operator="out"/>
<feColorMatrix type="matrix" values="0 0 0 0 1 0 0 0 0 1 0 0 0 0 1 0 0 0 1 0"/>
<feBlend mode="normal" in2="BackgroundImageFix" result="effect1_dropShadow_33_27"/>
<feBlend mode="normal" in="SourceGraphic" in2="effect1_dropShadow_33_27" result="shape"/>
</filter>
</defs>
</svg>
