<svg width="93" height="93" viewBox="0 0 93 93" fill="none" xmlns="http://www.w3.org/2000/svg">
<path id="Vector" d="M0.75 46.5C0.75 21.2454 21.2004 0.75 46.4537 0.75C71.7542 0.75 92.25 21.2464 92.25 46.5C92.25 71.7535 71.7542 92.25 46.4537 92.25C21.2004 92.25 0.75 71.7545 0.75 46.5ZM9 46.5C9 67.2186 25.7817 84 46.5 84C67.2182 84 84 67.2186 84 46.5C84 25.7814 67.2182 9 46.5 9C25.7817 9 9 25.7814 9 46.5ZM69.125 34.9375C69.125 38.5001 66.2505 41.375 62.6875 41.375C59.1244 41.375 56.25 38.5001 56.25 34.9375C56.25 31.3748 59.1244 28.5 62.6875 28.5C66.2505 28.5 69.125 31.3748 69.125 34.9375ZM36.75 34.9375C36.75 38.5001 33.8755 41.375 30.3125 41.375C26.7495 41.375 23.875 38.5001 23.875 34.9375C23.875 31.3748 26.7495 28.5 30.3125 28.5C33.8755 28.5 36.75 31.3748 36.75 34.9375ZM23.6106 56.25H69.3884C65.5932 65.1437 56.7985 71.4375 46.5 71.4375C36.2002 71.4375 27.4056 65.1437 23.6106 56.25Z" fill="white" stroke="black"/>
</svg>
